<?xml version="1.0" encoding="UTF-8"?>
<svg id="Layer_2" data-name="Layer 2" xmlns="http://www.w3.org/2000/svg" viewBox="0 0 697.82 777.12">
  <defs>
    <style>
      .cls-1 {
        stroke-width: 3px;
      }

      .cls-1, .cls-2 {
        fill: #364466;
        stroke: #364466;
        stroke-miterlimit: 10;
      }

      .cls-2 {
        stroke-width: 5px;
      }
    </style>
  </defs>
  <g id="Layer_1-2" data-name="Layer 1">
    <g>
      <path class="cls-2" d="M608.72,638.56l41.59-24.01c27.85-16.08,45.01-45.8,45.01-77.97V235.2c0-28.86-15.39-55.52-40.39-69.95L393.96,14.57c-27.87-16.09-62.22-16.09-90.09,0l-41.56,23.99,306.35,176.87c24.79,14.31,40.06,40.76,40.06,69.38v353.75Z"/>
      <path class="cls-2" d="M477,262.52L175.71,88.56,47.58,162.54C19.17,180.49,2.5,208.41,2.5,240.62v295.93c0,32.19,17.17,61.93,45.05,78.02l256.3,147.98c27.88,16.1,62.24,16.1,90.12,0l41.54-23.98,41.49-23.95c27.92-16.12,45.11-45.9,45.11-78.14v-295.82c0-32.24-17.2-62.02-45.11-78.14ZM435.51,628.34c0,6.33-3.38,12.18-8.86,15.34l-50.32,29.05c-16.97,9.8-37.88,9.8-54.85,0l-209.66-121.05c-14.06-8.12-22.72-23.12-22.72-39.35V250.65c0-7.48,3.76-13.48,10.47-18.13l65.77-37.97c6.41-3.7,14.31-3.7,20.73,0l239.23,138.12c6.32,3.65,10.22,10.4,10.22,17.7v277.98Z"/>
      <path class="cls-1" d="M348.91,538.56v42.52c0,3.32-3.6,5.4-6.48,3.74l-162.69-93.93c-2.5-1.44-4.04-4.11-4.04-7v-186.26c0-4.03,4.37-6.55,7.86-4.54l78.74,45.46,82.69,47.74c2.42,1.4,3.91,3.98,3.91,6.77v45.49l-129.9-75v100l129.9,75Z"/>
    </g>
  </g>
</svg>